<?xml version="1.0" encoding="UTF-8"?>
<svg width="40mm" height="24mm" version="1.1" viewBox="0 0 40 24" xmlns="http://www.w3.org/2000/svg" xmlns:cc="http://creativecommons.org/ns#" xmlns:dc="http://purl.org/dc/elements/1.1/" xmlns:rdf="http://www.w3.org/1999/02/22-rdf-syntax-ns#">
 <metadata>
  <rdf:RDF>
   <cc:Work rdf:about="">
    <dc:format>image/svg+xml</dc:format>
    <dc:type rdf:resource="http://purl.org/dc/dcmitype/StillImage"/>
    <dc:title/>
   </cc:Work>
  </rdf:RDF>
 </metadata>
 <g stroke-linecap="round">
  <path transform="scale(.26458)" d="m72.073 60.169c-11.668-1.589-20.97-10.86-22.615-22.541-0.23952-1.7008-0.27488-5.2696-0.067571-6.8201 1.3026-9.7422 7.633-17.85 16.698-21.388 8.4495-3.2974 17.951-1.9795 25.314 3.5112 5.6218 4.1926 9.3424 10.525 10.334 17.59 0.2525 1.7988 0.24857 5.3147-8e-3 7.0774-1.5567 10.698-9.2196 19.283-19.598 21.954-0.91841 0.2364-2.3276 0.51605-3.1316 0.62144-1.7797 0.2333-5.1973 0.23119-6.9263-0.0043zm14.04-7.3029c0.63028-0.32858 1.3983-1.0712 1.7035-1.6471 0.41127-0.77616 0.39374-2.4331-0.0346-3.2717-0.62632-1.2262-1.7911-1.9131-3.2232-1.9009-1.0621 0.0091-1.6169 0.22647-2.3852 0.93466-2.0081 1.851-1.3456 5.0538 1.2488 6.038 0.54114 0.20528 2.1826 0.11197 2.6908-0.15296zm-7.9492-3.6792c1.3242-0.21476 1.6597-0.34899 1.6598-0.66416 5.4e-5 -0.11909 0.16728-0.56992 0.37162-1.0018 0.96779-2.0457 3.2271-3.156 5.4585-2.6825l0.78128 0.1658 0.56375-0.62186c1.36-1.5002 2.5969-3.6317 3.2184-5.5463 0.34159-1.0523 0.71809-2.8704 0.71809-3.4676 0-0.34282-0.01-0.34692-1.0417-0.42724-0.57295-0.0446-1.725-0.08143-2.56-0.08185l-1.5183-7.56e-4 -0.15078 0.94768c-0.3831 2.4078-2.0058 5.0137-4.0147 6.4472-1.0497 0.74902-2.677 1.4931-3.8464 1.7586-1.8273 0.41496-4.1792 0.23204-5.9076-0.45946-0.3671-0.14687-0.68493-0.2454-0.70629-0.21896-0.07918 0.098-2.4775 4.4162-2.4775 4.4608 0 0.08268 1.8105 0.79924 2.5822 1.022 1.9945 0.57571 4.7035 0.72181 6.8698 0.37048zm-9.7095-4.6279 1.2839-2.1689-0.60725-0.51434c-1.7363-1.4707-2.9182-3.2936-3.4746-5.3593-0.40127-1.4897-0.36976-3.7609 0.0726-5.2322 0.60265-2.0044 1.4688-3.3882 3.0377-4.8534l0.95376-0.89071-1.2755-2.1593c-0.70151-1.1876-1.3199-2.1593-1.3743-2.1593-0.2323 0-1.6565 1.182-2.6035 2.1607-1.574 1.6267-2.7531 3.5497-3.4521 5.6299l-0.36943 1.0994 0.48968 0.53123c0.63805 0.69221 1.076 1.572 1.2678 2.547 0.27257 1.3854-0.21779 2.9778-1.2678 4.1169l-0.48968 0.53123 0.36835 1.0962c0.7166 2.1325 1.9097 4.067 3.5383 5.7373 0.87773 0.90014 2.2941 2.0566 2.5188 2.0566 0.05457 0 0.67699-0.97599 1.3832-2.1689zm-9.2356-7.3527c0.75784-0.38402 1.4351-1.122 1.7241-1.8786 0.27832-0.72878 0.2237-2.2117-0.10648-2.8909-0.29898-0.61501-0.97929-1.3023-1.6332-1.65-0.76204-0.40514-2.4454-0.40414-3.2094 0.0019-1.2409 0.65952-1.8314 1.6112-1.9053 3.0705-0.06085 1.2013 0.25434 2.0205 1.0649 2.7677 1.1322 1.0437 2.7064 1.268 4.0654 0.57931zm29.602-4.114 2.115-0.0014v-0.36227c0-1.3033-0.70342-3.8328-1.5447-5.5549-0.91159-1.8659-2.8206-4.2819-3.251-4.1144-1.608 0.62573-3.7952 0.06665-5.0697-1.2959-0.6799-0.72687-0.83792-0.99692-1.1263-1.9248-0.21295-0.68516-0.21717-0.68917-0.89298-0.84754-2.1507-0.504-5.1177-0.46537-7.255 0.09444-1.0932 0.28635-2.9185 0.9609-3.0128 1.1134-0.03307 0.05351 0.42676 0.97313 1.0218 2.0436 1.5662 2.8173 1.3332 2.5481 1.9693 2.2758 1.5888-0.68034 3.7041-0.9084 5.5077-0.59378 4.2675 0.7444 7.7219 4.1913 8.3865 8.3681l0.15078 0.94764 0.4432-0.07335c0.24376-0.04034 1.395-0.07397 2.5582-0.07474zm-2.7437-11.411c0.74828-0.34845 1.3525-0.91979 1.7369-1.6425 0.22287-0.41895 0.27801-0.73402 0.27923-1.5953 0.0014-0.95383-0.03993-1.1481-0.37085-1.7455-0.66083-1.193-1.7189-1.8069-3.1198-1.8103-3.4122-0.0082-4.8991 4.2213-2.237 6.3631 0.97506 0.7845 2.5572 0.96802 3.7115 0.43051z" fill="#80b3ff" stroke-width="1.4317"/>
  <rect x="-2.7756e-17" width="40" height="24" fill="#79F393" stroke-width="3.099"/>
 </g>
 <g stroke="#fff" stroke-width=".362">
  <g stroke-linejoin="bevel">
   <path d="m20.001 2.1669-4.8312 2.0152 3.9843 3.9704 0.84684-0.84841z" fill="#fff"/>
   <path d="m20.001 2.1669v5.1372l1.1531-1.1553 0.36048 1.3376 3.312-3.3042z" fill="none"/>
   <path d="m24.827 4.1822-3.312 3.3042 0.40691 1.5102h4.9028z" fill="#fff"/>
   <path d="m21.921 8.9966 0.70819 2.6287-0.01215-0.0034 2.209 2.2168 1.9978-4.8421z" fill="none"/>
   <path d="m20.001 10.919v4.9135l4.8256-1.9941-2.209-2.2168z" fill="#fff"/>
   <path d="m18.488 10.513-3.3182 3.3257 4.8312 1.9941v-4.9135z" fill="none"/>
   <path d="m13.176 8.9966 1.994 4.8421 3.3182-3.3257-1.3323-0.358 1.1562-1.1584z" fill="#fff"/>
   <path d="m15.17 4.1822-1.994 4.8144h5.1362l0.84217-0.84405z" fill="none"/>
  </g>
  <path d="m17.156 10.155 3.9983-4.006 1.4755 5.4764z" fill="none"/>
 </g>
 <g>
  <text x="3.2595322" y="21.931448" fill="#ffffff" font-family="sans-serif" font-size="5.6444px" stroke-width=".26458" style="line-height:1.25" xml:space="preserve"><tspan x="3.2595322" y="21.931448" fill="#ffffff" font-family="Arial" font-size="5.6444px" stroke-width=".26458">DigitalPalette</tspan></text>
 </g>
</svg>
