<?xml version="1.0" encoding="UTF-8"?>
<svg width="40mm" height="24mm" version="1.1" viewBox="0 0 40 24" xmlns="http://www.w3.org/2000/svg" xmlns:cc="http://creativecommons.org/ns#" xmlns:dc="http://purl.org/dc/elements/1.1/" xmlns:rdf="http://www.w3.org/1999/02/22-rdf-syntax-ns#">
 <metadata>
  <rdf:RDF>
   <cc:Work rdf:about="">
    <dc:format>image/svg+xml</dc:format>
    <dc:type rdf:resource="http://purl.org/dc/dcmitype/StillImage"/>
    <dc:title/>
   </cc:Work>
  </rdf:RDF>
 </metadata>
 <g stroke-linecap="round">
  <path transform="scale(.26458)" d="m72.073 60.169c-11.668-1.589-20.97-10.86-22.615-22.541-0.23952-1.7008-0.27488-5.2696-0.067571-6.8201 1.3026-9.7422 7.633-17.85 16.698-21.388 8.4495-3.2974 17.951-1.9795 25.314 3.5112 5.6218 4.1926 9.3424 10.525 10.334 17.59 0.2525 1.7988 0.24857 5.3147-8e-3 7.0774-1.5567 10.698-9.2196 19.283-19.598 21.954-0.91841 0.2364-2.3276 0.51605-3.1316 0.62144-1.7797 0.2333-5.1973 0.23119-6.9263-0.0043zm14.04-7.3029c0.63028-0.32858 1.3983-1.0712 1.7035-1.6471 0.41127-0.77616 0.39374-2.4331-0.0346-3.2717-0.62632-1.2262-1.7911-1.9131-3.2232-1.9009-1.0621 0.0091-1.6169 0.22647-2.3852 0.93466-2.0081 1.851-1.3456 5.0538 1.2488 6.038 0.54114 0.20528 2.1826 0.11197 2.6908-0.15296zm-7.9492-3.6792c1.3242-0.21476 1.6597-0.34899 1.6598-0.66416 5.4e-5 -0.11909 0.16728-0.56992 0.37162-1.0018 0.96779-2.0457 3.2271-3.156 5.4585-2.6825l0.78128 0.1658 0.56375-0.62186c1.36-1.5002 2.5969-3.6317 3.2184-5.5463 0.34159-1.0523 0.71809-2.8704 0.71809-3.4676 0-0.34282-0.01-0.34692-1.0417-0.42724-0.57295-0.0446-1.725-0.08143-2.56-0.08185l-1.5183-7.56e-4 -0.15078 0.94768c-0.3831 2.4078-2.0058 5.0137-4.0147 6.4472-1.0497 0.74902-2.677 1.4931-3.8464 1.7586-1.8273 0.41496-4.1792 0.23204-5.9076-0.45946-0.3671-0.14687-0.68493-0.2454-0.70629-0.21896-0.07918 0.098-2.4775 4.4162-2.4775 4.4608 0 0.08268 1.8105 0.79924 2.5822 1.022 1.9945 0.57571 4.7035 0.72181 6.8698 0.37048zm-9.7095-4.6279 1.2839-2.1689-0.60725-0.51434c-1.7363-1.4707-2.9182-3.2936-3.4746-5.3593-0.40127-1.4897-0.36976-3.7609 0.0726-5.2322 0.60265-2.0044 1.4688-3.3882 3.0377-4.8534l0.95376-0.89071-1.2755-2.1593c-0.70151-1.1876-1.3199-2.1593-1.3743-2.1593-0.2323 0-1.6565 1.182-2.6035 2.1607-1.574 1.6267-2.7531 3.5497-3.4521 5.6299l-0.36943 1.0994 0.48968 0.53123c0.63805 0.69221 1.076 1.572 1.2678 2.547 0.27257 1.3854-0.21779 2.9778-1.2678 4.1169l-0.48968 0.53123 0.36835 1.0962c0.7166 2.1325 1.9097 4.067 3.5383 5.7373 0.87773 0.90014 2.2941 2.0566 2.5188 2.0566 0.05457 0 0.67699-0.97599 1.3832-2.1689zm-9.2356-7.3527c0.75784-0.38402 1.4351-1.122 1.7241-1.8786 0.27832-0.72878 0.2237-2.2117-0.10648-2.8909-0.29898-0.61501-0.97929-1.3023-1.6332-1.65-0.76204-0.40514-2.4454-0.40414-3.2094 0.0019-1.2409 0.65952-1.8314 1.6112-1.9053 3.0705-0.06085 1.2013 0.25434 2.0205 1.0649 2.7677 1.1322 1.0437 2.7064 1.268 4.0654 0.57931zm29.602-4.114 2.115-0.0014v-0.36227c0-1.3033-0.70342-3.8328-1.5447-5.5549-0.91159-1.8659-2.8206-4.2819-3.251-4.1144-1.608 0.62573-3.7952 0.06665-5.0697-1.2959-0.6799-0.72687-0.83792-0.99692-1.1263-1.9248-0.21295-0.68516-0.21717-0.68917-0.89298-0.84754-2.1507-0.504-5.1177-0.46537-7.255 0.09444-1.0932 0.28635-2.9185 0.9609-3.0128 1.1134-0.03307 0.05351 0.42676 0.97313 1.0218 2.0436 1.5662 2.8173 1.3332 2.5481 1.9693 2.2758 1.5888-0.68034 3.7041-0.9084 5.5077-0.59378 4.2675 0.7444 7.7219 4.1913 8.3865 8.3681l0.15078 0.94764 0.4432-0.07335c0.24376-0.04034 1.395-0.07397 2.5582-0.07474zm-2.7437-11.411c0.74828-0.34845 1.3525-0.91979 1.7369-1.6425 0.22287-0.41895 0.27801-0.73402 0.27923-1.5953 0.0014-0.95383-0.03993-1.1481-0.37085-1.7455-0.66083-1.193-1.7189-1.8069-3.1198-1.8103-3.4122-0.0082-4.8991 4.2213-2.237 6.3631 0.97506 0.7845 2.5572 0.96802 3.7115 0.43051z" fill="#80b3ff" stroke-width="1.4317"/>
  <rect x="-2.7756e-17" width="40" height="24" fill="#D39157" stroke-width="3.099"/>
 </g>
 <g fill="#fff" stroke-linecap="round">
  <path d="m10.267 7.3565c-0.32888 0.00879-0.66309 0.00483-0.98544 0.078351-0.12826 0.011782-0.11611 0.16247-0.15251 0.25404-0.40173 1.419-0.47772 2.9414-0.12924 4.3797 0.25541 1.0621 0.72164 2.0886 1.4368 2.9212 0.38121 0.43145 0.84447 0.83056 1.4126 0.98028 0.26022 0.06537 0.54179 0.02028 0.77963-0.09999 0.51504-0.2535 0.90776-0.69452 1.2454-1.148 0.58586-0.81436 1.0101-1.7466 1.2356-2.7243 0.0845-0.35676 0.12781-0.72267 0.11744-1.0895-0.0114-0.13318 0.03178-0.29162-0.05742-0.40554-0.09125-0.09068-0.25276-0.1141-0.29152-0.25248-0.19532-0.47677-0.28867-0.98872-0.34832-1.497-0.04397-0.41511-0.05256-0.83749 0.01299-1.249-5.23e-4 -0.10762-0.13356-0.097221-0.20867-0.1128-0.37067-0.04125-0.75093-0.026925-1.1147 0.057127-0.07444 0.021797-0.2069 0.060756-0.16268 0.16195 0.38581 0.83497 0.65804 1.7223 0.71503 2.6428 0.04794 0.84253-0.09279 1.7174-0.49229 2.475-0.21131 0.39119-0.48814 0.75816-0.85751 1.0139-0.10968 0.07403-0.25622 0.13794-0.38056 0.05714-0.27653-0.15924-0.48351-0.41436-0.6697-0.6682-0.42165-0.60602-0.67242-1.3247-0.77455-2.05-0.16151-1.1299 0.07821-2.2898 0.54564-3.3195 0.03497-0.096048 0.10289-0.18256 0.11488-0.28479-0.04621-0.087717-0.16728-0.070422-0.25218-0.091236-0.2451-0.027005-0.49231-0.029714-0.73865-0.02909z" stroke-width=".028699"/>
  <path d="m18.157 2.0003c-0.44228 0.055798-0.78676 0.38454-1.1067 0.66764-1.1284 1.0879-1.8722 2.5415-2.2177 4.0622-0.16727 0.75906-0.19497 1.5519-0.07956 2.3204 0.08196 0.39021 0.14679 0.79748 0.33375 1.1537 0.18684 0.16123 0.46352 0.14712 0.69606 0.18089 0.34753 0.01543 0.70708 0.05902 1.0484-0.02327 0.13919-0.08089-0.01013-0.24601-0.03809-0.35114-0.22927-0.46905-0.49317-0.96999-0.4547-1.503-9.93e-4 -0.29553 0.11861-0.58929 0.35806-0.77016 0.57545-0.46021 1.3483-0.64586 2.0629-0.61532 0.35213 0.016182 0.79183 0.10987 0.92143 0.48632 0.11912 0.41051 0.10043 0.84815 0.0015 1.2609-0.13006 0.50039-0.46974 0.90546-0.70378 1.3546 0.0071 0.17456 0.23816 0.18362 0.3681 0.21353 0.37002 0.03738 0.7564 0.06224 1.1192-0.03154 0.13449-0.07664-0.0011-0.24037-0.03292-0.34155-0.22841-0.40522-0.33492-0.8753-0.25342-1.3398 0.05587-0.50844 0.2659-1.0101 0.63164-1.3808 0.14863-0.13726 0.20294-0.33748 0.17838-0.53429-0.04187-1.2359-0.53905-2.4227-1.2336-3.4316-0.34973-0.47967-0.74051-0.95228-1.2449-1.2755-0.10765-0.060813-0.2285-0.10652-0.35395-0.10221zm0.08181 1.4644c0.33969 0.049675 0.5463 0.36973 0.7277 0.62986 0.26342 0.43838 0.49294 0.93071 0.47952 1.4549 0.0041 0.19692-0.12666 0.3967-0.33869 0.40224-0.53627 0.048106-1.1024-0.0034-1.6293 0.17131-0.2869 0.053668-0.60669 0.17653-0.89111 0.049504-0.1723-0.093062-0.084-0.31037-0.06996-0.46217 0.16377-0.65456 0.51185-1.265 0.94555-1.7815 0.20341-0.22017 0.45674-0.46368 0.77628-0.46421z" stroke-width=".057398"/>
  <path d="m23.043 6.6034c-0.72714 0.013693-1.4691 0.27931-1.9751 0.81502-0.52182 0.53542-0.80818 1.3295-0.63501 2.0701 0.07793 0.34568 0.26665 0.66107 0.52698 0.90049 0.5251 0.54374 1.1661 0.99335 1.8967 1.2089 0.29595 0.09462 0.62084 0.12654 0.87853 0.31477 0.32028 0.21965 0.57476 0.58307 0.57045 0.98279-0.01462 0.23038-0.2173 0.38224-0.38837 0.50702-0.31899 0.21146-0.69907 0.34463-1.085 0.32977-0.39746 0.0083-0.767-0.17518-1.091-0.39127-0.41986-0.28085-0.73605-0.71598-0.85072-1.2101-0.05771-0.18808-0.05833-0.39299-0.13991-0.57309-0.05085-0.08933-0.16428-0.03906-0.21356 0.02445-0.331 0.35634-0.57199 0.80989-0.61684 1.2993-0.07189 0.61246 0.11444 1.2642 0.55355 1.7068 0.6984 0.6963 1.7105 1.0465 2.6899 0.97382 0.53091-0.03606 1.0685-0.1286 1.5531-0.35669 0.42779-0.21349 0.78035-0.55744 1.0591-0.94163 0.24759-0.35655 0.4271-0.80368 0.33813-1.2429-0.01275-0.09204-0.07249-0.18385-0.17329-0.18865-0.20335-0.03938-0.43502 0.0053-0.61337-0.12241-0.14448-0.1101-0.15377-0.30946-0.18969-0.4732-0.07568-0.45731-0.07428-0.92324-0.14074-1.3814-0.02273-0.11602-0.15828-0.15146-0.24075-0.216-0.51514-0.32255-1.0895-0.52771-1.6549-0.7419-0.37718-0.15576-0.79832-0.30939-1.0513-0.65332-0.12656-0.18701-0.18594-0.43769-0.10984-0.65518 0.13176-0.30597 0.47163-0.45282 0.78382-0.49114 0.25316-0.026429 0.51978-0.042887 0.76008 0.058129 0.42212 0.15659 0.72433 0.51209 1.1127 0.72631 0.1018 0.047984 0.25232 0.085585 0.3385-0.00816 0.06675-0.12374 0.0466-0.27392 0.06091-0.40975 0.0056-0.40221 0.0026-0.80854-0.06788-1.2056-0.03279-0.14776-0.19736-0.2022-0.31236-0.27268-0.48186-0.25908-1.0263-0.38726-1.5727-0.38252z" stroke-width=".028699"/>
  <path d="m27.814 4.1125c-0.6316 0.00249-1.2652 0.028336-1.891 0.11793-0.10961 0.026884-0.24634 0.026466-0.325 0.11865-0.06878 0.21604-0.09568 0.44459-0.13839 0.66726-0.19178 1.2392-0.24102 2.4957-0.2503 3.7481-0.0012 1.2383 0.04508 2.4796 0.19866 3.7087 0.05063 0.08685 0.17032 0.09222 0.25904 0.11604 0.48081 0.07239 0.97281 0.06553 1.4541 0.0019 0.1001-0.01604 0.24876-0.03529 0.25316-0.16573 0.01754-0.255-0.04548-0.50786-0.07957-0.75932-0.07047-0.44668-0.17423-0.89834-0.13081-1.3529 0.03661-0.19774 0.21634-0.32067 0.35321-0.45022 0.43145-0.34645 0.9225-0.60592 1.3969-0.88639 0.44887-0.26616 0.93318-0.49591 1.2971-0.88012 0.4445-0.42878 0.82064-0.95272 0.98496-1.5544 0.13393-0.51792-0.02177-1.0694-0.29183-1.5168-0.23706-0.38538-0.60468-0.72091-1.0623-0.80325-0.65831-0.1321-1.3337-0.10086-2.0012-0.10942-9e-3 1.16e-5 -0.01792 2.26e-5 -0.02689 3.35e-5zm0.39997 1.2489c0.40348-0.00912 0.83466 0.17164 1.0477 0.52686 0.09538 0.14745 0.11689 0.32482 0.10636 0.49662-0.01065 0.26256-0.17234 0.48953-0.3293 0.68913-0.39276 0.46855-0.89532 0.83569-1.45 1.0893-0.19532 0.083014-0.4146 0.16134-0.6278 0.11077-0.10484-0.091208-0.10801-0.24825-0.12956-0.37632-0.05207-0.54851 0.01798-1.1084 0.20623-1.6264 0.12778-0.34489 0.33763-0.70154 0.70154-0.8337 0.15308-0.06071 0.31059-0.07571 0.47481-0.07624z" stroke-width=".028699"/>
 </g>
 <g>
  <text transform="scale(1 .99999)" x="12.781565" y="21.931627" fill="#ffffff" font-family="sans-serif" font-size="5.6445px" stroke-width=".26459" style="line-height:1.25" xml:space="preserve"><tspan x="12.781565" y="21.931627" fill="#ffffff" font-family="Arial" font-size="5.6445px" stroke-width=".26459">VASP</tspan></text>
 </g>
</svg>
